# xmcd
#
# Track frame offsets: 
#        150
#        21017
#        47282
#
# Disc length: 913 seconds
#
# Revision: 0
# Processed by: cddbd v1.5.2PL0 Copyright (c) Steve Scherf et al.
# Submitted via: ExactAudioCopyFreeDBPlugin 1.0
#
DISCID=15038f03
DTITLE=Stevie Ray Vaughan and Double Trouble - The Sky Is Crying
DYEAR=1991
DGENRE=Blues
TTITLE0=The Sky Is Crying
TTITLE1=May I Have A Talk With You
TTITLE2=The Vaughan Brothers - Hard To Be
EXTD=
EXTT0=
EXTT1=
EXTT2=
PLAYORDER=
